<svg xmlns="http://www.w3.org/2000/svg" viewBox="0 0 860 530" width="860" height="530">
  <rect width="860" height="530" fill="#0d1117" rx="16" ry="16"/>
  <rect x="1" y="1" width="858" height="528" fill="none" stroke="#30363d" stroke-width="1" rx="15" ry="15"/>
  <g transform="translate(20, 20)">
    
  <defs>
    <linearGradient id="cardGrad0" x1="0%" y1="0%" x2="100%" y2="100%">
      <stop offset="0%" style="stop-color:#161b22;stop-opacity:1" />
      <stop offset="100%" style="stop-color:#0d1117;stop-opacity:1" />
    </linearGradient>
    <filter id="shadow0" x="-10%" y="-10%" width="120%" height="140%">
      <feDropShadow dx="0" dy="4" stdDeviation="8" flood-opacity="0.15"/>
    </filter>
  </defs>
  
  <rect width="400" height="150" fill="#0d1117" rx="12" ry="12"/>
  <rect x="4" y="4" width="392" height="142" fill="url(#cardGrad0)" rx="10" ry="10" stroke="#30363d" stroke-width="1" filter="url(#shadow0)"/>
  
  <!-- Repo Icon -->
  <g transform="translate(20, 20)">
    <path fill="#8b949e" d="M2 2.5A2.5 2.5 0 0 1 4.5 0h8.75a.75.75 0 0 1 .75.75v12.5a.75.75 0 0 1-.75.75h-2.5a.75.75 0 0 1 0-1.5h1.75v-2h-8a1 1 0 0 0-.714 1.7.75.75 0 1 1-1.072 1.05A2.495 2.495 0 0 1 2 11.5Zm10.5-1h-8a1 1 0 0 0-1 1v6.708A2.486 2.486 0 0 1 4.5 9h8ZM5 12.25a.25.25 0 0 1 .25-.25h3.5a.25.25 0 0 1 .25.25v3.25a.25.25 0 0 1-.4.2l-1.45-1.087a.249.249 0 0 0-.3 0L5.4 15.7a.25.25 0 0 1-.4-.2Z" transform="scale(1.2)"/>
  </g>
  
  <!-- Repo Name -->
  <text x="50" y="35" fill="#58a6ff" font-family="'Segoe UI', system-ui, sans-serif" font-size="16" font-weight="600">AtMark</text>
  
  <!-- Description -->
  <text x="20" y="60" fill="#8b949e" font-family="'Segoe UI', system-ui, sans-serif" font-size="12">A signup-based attendance management app built wit</text>
  <text x="20" y="76" fill="#8b949e" font-family="'Segoe UI', system-ui, sans-serif" font-size="12">h React Native CLI, designed to make attendance tr...</text>
  
  <!-- Footer Stats -->
  <g transform="translate(20, 120)">
    <!-- Language -->
    <circle cx="6" cy="6" r="6" fill="#3178c6"/>
    <text x="18" y="10" fill="#8b949e" font-family="'Segoe UI', system-ui, sans-serif" font-size="12">TypeScript</text>
    
    <!-- Stars -->
    <g transform="translate(120, 0)">
      <path fill="#8b949e" d="M8 .25a.75.75 0 0 1 .673.418l1.882 3.815 4.21.612a.75.75 0 0 1 .416 1.279l-3.046 2.97.719 4.192a.751.751 0 0 1-1.088.791L8 12.347l-3.766 1.98a.75.75 0 0 1-1.088-.79l.72-4.194L.818 6.374a.75.75 0 0 1 .416-1.28l4.21-.611L7.327.668A.75.75 0 0 1 8 .25Z" transform="scale(0.85)"/>
      <text x="18" y="10" fill="#8b949e" font-family="'Segoe UI', system-ui, sans-serif" font-size="12">1</text>
    </g>
    
    <!-- Forks -->
    <g transform="translate(180, 0)">
      <path fill="#8b949e" d="M5 5.372v.878c0 .414.336.75.75.75h4.5a.75.75 0 0 0 .75-.75v-.878a2.25 2.25 0 1 1 1.5 0v.878a2.25 2.25 0 0 1-2.25 2.25h-1.5v2.128a2.251 2.251 0 1 1-1.5 0V8.5h-1.5A2.25 2.25 0 0 1 3.5 6.25v-.878a2.25 2.25 0 1 1 1.5 0ZM5 3.25a.75.75 0 1 0-1.5 0 .75.75 0 0 0 1.5 0Zm6.75.75a.75.75 0 1 0 0-1.5.75.75 0 0 0 0 1.5Zm-3 8.75a.75.75 0 1 0-1.5 0 .75.75 0 0 0 1.5 0Z" transform="scale(0.85)"/>
      <text x="18" y="10" fill="#8b949e" font-family="'Segoe UI', system-ui, sans-serif" font-size="12">0</text>
    </g>
  </g>

  </g>
  <g transform="translate(440, 20)">
    
  <defs>
    <linearGradient id="cardGrad1" x1="0%" y1="0%" x2="100%" y2="100%">
      <stop offset="0%" style="stop-color:#161b22;stop-opacity:1" />
      <stop offset="100%" style="stop-color:#0d1117;stop-opacity:1" />
    </linearGradient>
    <filter id="shadow1" x="-10%" y="-10%" width="120%" height="140%">
      <feDropShadow dx="0" dy="4" stdDeviation="8" flood-opacity="0.15"/>
    </filter>
  </defs>
  
  <rect width="400" height="150" fill="#0d1117" rx="12" ry="12"/>
  <rect x="4" y="4" width="392" height="142" fill="url(#cardGrad1)" rx="10" ry="10" stroke="#30363d" stroke-width="1" filter="url(#shadow1)"/>
  
  <!-- Repo Icon -->
  <g transform="translate(20, 20)">
    <path fill="#8b949e" d="M2 2.5A2.5 2.5 0 0 1 4.5 0h8.75a.75.75 0 0 1 .75.75v12.5a.75.75 0 0 1-.75.75h-2.5a.75.75 0 0 1 0-1.5h1.75v-2h-8a1 1 0 0 0-.714 1.7.75.75 0 1 1-1.072 1.05A2.495 2.495 0 0 1 2 11.5Zm10.5-1h-8a1 1 0 0 0-1 1v6.708A2.486 2.486 0 0 1 4.5 9h8ZM5 12.25a.25.25 0 0 1 .25-.25h3.5a.25.25 0 0 1 .25.25v3.25a.25.25 0 0 1-.4.2l-1.45-1.087a.249.249 0 0 0-.3 0L5.4 15.7a.25.25 0 0 1-.4-.2Z" transform="scale(1.2)"/>
  </g>
  
  <!-- Repo Name -->
  <text x="50" y="35" fill="#58a6ff" font-family="'Segoe UI', system-ui, sans-serif" font-size="16" font-weight="600">TripBudget</text>
  
  <!-- Description -->
  <text x="20" y="60" fill="#8b949e" font-family="'Segoe UI', system-ui, sans-serif" font-size="12">A modern, real-time expense tracking application f</text>
  <text x="20" y="76" fill="#8b949e" font-family="'Segoe UI', system-ui, sans-serif" font-size="12">or group trips built with React, Firebase, and Tai...</text>
  
  <!-- Footer Stats -->
  <g transform="translate(20, 120)">
    <!-- Language -->
    <circle cx="6" cy="6" r="6" fill="#f1e05a"/>
    <text x="18" y="10" fill="#8b949e" font-family="'Segoe UI', system-ui, sans-serif" font-size="12">JavaScript</text>
    
    <!-- Stars -->
    <g transform="translate(120, 0)">
      <path fill="#8b949e" d="M8 .25a.75.75 0 0 1 .673.418l1.882 3.815 4.21.612a.75.75 0 0 1 .416 1.279l-3.046 2.97.719 4.192a.751.751 0 0 1-1.088.791L8 12.347l-3.766 1.98a.75.75 0 0 1-1.088-.79l.72-4.194L.818 6.374a.75.75 0 0 1 .416-1.28l4.21-.611L7.327.668A.75.75 0 0 1 8 .25Z" transform="scale(0.85)"/>
      <text x="18" y="10" fill="#8b949e" font-family="'Segoe UI', system-ui, sans-serif" font-size="12">4</text>
    </g>
    
    <!-- Forks -->
    <g transform="translate(180, 0)">
      <path fill="#8b949e" d="M5 5.372v.878c0 .414.336.75.75.75h4.5a.75.75 0 0 0 .75-.75v-.878a2.25 2.25 0 1 1 1.5 0v.878a2.25 2.25 0 0 1-2.25 2.25h-1.5v2.128a2.251 2.251 0 1 1-1.5 0V8.5h-1.5A2.25 2.25 0 0 1 3.5 6.25v-.878a2.25 2.25 0 1 1 1.5 0ZM5 3.25a.75.75 0 1 0-1.5 0 .75.75 0 0 0 1.5 0Zm6.75.75a.75.75 0 1 0 0-1.5.75.75 0 0 0 0 1.5Zm-3 8.75a.75.75 0 1 0-1.5 0 .75.75 0 0 0 1.5 0Z" transform="scale(0.85)"/>
      <text x="18" y="10" fill="#8b949e" font-family="'Segoe UI', system-ui, sans-serif" font-size="12">0</text>
    </g>
  </g>

  </g>
  <g transform="translate(20, 190)">
    
  <defs>
    <linearGradient id="cardGrad2" x1="0%" y1="0%" x2="100%" y2="100%">
      <stop offset="0%" style="stop-color:#161b22;stop-opacity:1" />
      <stop offset="100%" style="stop-color:#0d1117;stop-opacity:1" />
    </linearGradient>
    <filter id="shadow2" x="-10%" y="-10%" width="120%" height="140%">
      <feDropShadow dx="0" dy="4" stdDeviation="8" flood-opacity="0.15"/>
    </filter>
  </defs>
  
  <rect width="400" height="150" fill="#0d1117" rx="12" ry="12"/>
  <rect x="4" y="4" width="392" height="142" fill="url(#cardGrad2)" rx="10" ry="10" stroke="#30363d" stroke-width="1" filter="url(#shadow2)"/>
  
  <!-- Repo Icon -->
  <g transform="translate(20, 20)">
    <path fill="#8b949e" d="M2 2.5A2.5 2.5 0 0 1 4.5 0h8.75a.75.75 0 0 1 .75.75v12.5a.75.75 0 0 1-.75.75h-2.5a.75.75 0 0 1 0-1.5h1.75v-2h-8a1 1 0 0 0-.714 1.7.75.75 0 1 1-1.072 1.05A2.495 2.495 0 0 1 2 11.5Zm10.5-1h-8a1 1 0 0 0-1 1v6.708A2.486 2.486 0 0 1 4.5 9h8ZM5 12.25a.25.25 0 0 1 .25-.25h3.5a.25.25 0 0 1 .25.25v3.25a.25.25 0 0 1-.4.2l-1.45-1.087a.249.249 0 0 0-.3 0L5.4 15.7a.25.25 0 0 1-.4-.2Z" transform="scale(1.2)"/>
  </g>
  
  <!-- Repo Name -->
  <text x="50" y="35" fill="#58a6ff" font-family="'Segoe UI', system-ui, sans-serif" font-size="16" font-weight="600">Fitness-Dashboard</text>
  
  <!-- Description -->
  <text x="20" y="60" fill="#8b949e" font-family="'Segoe UI', system-ui, sans-serif" font-size="12">A comprehensive Power BI Dashboard built to track,</text>
  <text x="20" y="76" fill="#8b949e" font-family="'Segoe UI', system-ui, sans-serif" font-size="12"> analyze, and visualize the overall performance of...</text>
  
  <!-- Footer Stats -->
  <g transform="translate(20, 120)">
    <!-- Language -->
    <circle cx="6" cy="6" r="6" fill="#8b949e"/>
    <text x="18" y="10" fill="#8b949e" font-family="'Segoe UI', system-ui, sans-serif" font-size="12">None</text>
    
    <!-- Stars -->
    <g transform="translate(120, 0)">
      <path fill="#8b949e" d="M8 .25a.75.75 0 0 1 .673.418l1.882 3.815 4.21.612a.75.75 0 0 1 .416 1.279l-3.046 2.97.719 4.192a.751.751 0 0 1-1.088.791L8 12.347l-3.766 1.98a.75.75 0 0 1-1.088-.79l.72-4.194L.818 6.374a.75.75 0 0 1 .416-1.28l4.21-.611L7.327.668A.75.75 0 0 1 8 .25Z" transform="scale(0.85)"/>
      <text x="18" y="10" fill="#8b949e" font-family="'Segoe UI', system-ui, sans-serif" font-size="12">1</text>
    </g>
    
    <!-- Forks -->
    <g transform="translate(180, 0)">
      <path fill="#8b949e" d="M5 5.372v.878c0 .414.336.75.75.75h4.5a.75.75 0 0 0 .75-.75v-.878a2.25 2.25 0 1 1 1.5 0v.878a2.25 2.25 0 0 1-2.25 2.25h-1.5v2.128a2.251 2.251 0 1 1-1.5 0V8.5h-1.5A2.25 2.25 0 0 1 3.5 6.25v-.878a2.25 2.25 0 1 1 1.5 0ZM5 3.25a.75.75 0 1 0-1.5 0 .75.75 0 0 0 1.5 0Zm6.75.75a.75.75 0 1 0 0-1.5.75.75 0 0 0 0 1.5Zm-3 8.75a.75.75 0 1 0-1.5 0 .75.75 0 0 0 1.5 0Z" transform="scale(0.85)"/>
      <text x="18" y="10" fill="#8b949e" font-family="'Segoe UI', system-ui, sans-serif" font-size="12">0</text>
    </g>
  </g>

  </g>
  <g transform="translate(440, 190)">
    
  <defs>
    <linearGradient id="cardGrad3" x1="0%" y1="0%" x2="100%" y2="100%">
      <stop offset="0%" style="stop-color:#161b22;stop-opacity:1" />
      <stop offset="100%" style="stop-color:#0d1117;stop-opacity:1" />
    </linearGradient>
    <filter id="shadow3" x="-10%" y="-10%" width="120%" height="140%">
      <feDropShadow dx="0" dy="4" stdDeviation="8" flood-opacity="0.15"/>
    </filter>
  </defs>
  
  <rect width="400" height="150" fill="#0d1117" rx="12" ry="12"/>
  <rect x="4" y="4" width="392" height="142" fill="url(#cardGrad3)" rx="10" ry="10" stroke="#30363d" stroke-width="1" filter="url(#shadow3)"/>
  
  <!-- Repo Icon -->
  <g transform="translate(20, 20)">
    <path fill="#8b949e" d="M2 2.5A2.5 2.5 0 0 1 4.5 0h8.75a.75.75 0 0 1 .75.75v12.5a.75.75 0 0 1-.75.75h-2.5a.75.75 0 0 1 0-1.5h1.75v-2h-8a1 1 0 0 0-.714 1.7.75.75 0 1 1-1.072 1.05A2.495 2.495 0 0 1 2 11.5Zm10.5-1h-8a1 1 0 0 0-1 1v6.708A2.486 2.486 0 0 1 4.5 9h8ZM5 12.25a.25.25 0 0 1 .25-.25h3.5a.25.25 0 0 1 .25.25v3.25a.25.25 0 0 1-.4.2l-1.45-1.087a.249.249 0 0 0-.3 0L5.4 15.7a.25.25 0 0 1-.4-.2Z" transform="scale(1.2)"/>
  </g>
  
  <!-- Repo Name -->
  <text x="50" y="35" fill="#58a6ff" font-family="'Segoe UI', system-ui, sans-serif" font-size="16" font-weight="600">Float-Chat</text>
  
  <!-- Description -->
  <text x="20" y="60" fill="#8b949e" font-family="'Segoe UI', system-ui, sans-serif" font-size="12">An AI-powered conversational system for exploring </text>
  <text x="20" y="76" fill="#8b949e" font-family="'Segoe UI', system-ui, sans-serif" font-size="12">and visualizing ARGO oceanographic data using natu...</text>
  
  <!-- Footer Stats -->
  <g transform="translate(20, 120)">
    <!-- Language -->
    <circle cx="6" cy="6" r="6" fill="#3572A5"/>
    <text x="18" y="10" fill="#8b949e" font-family="'Segoe UI', system-ui, sans-serif" font-size="12">Python</text>
    
    <!-- Stars -->
    <g transform="translate(120, 0)">
      <path fill="#8b949e" d="M8 .25a.75.75 0 0 1 .673.418l1.882 3.815 4.21.612a.75.75 0 0 1 .416 1.279l-3.046 2.97.719 4.192a.751.751 0 0 1-1.088.791L8 12.347l-3.766 1.98a.75.75 0 0 1-1.088-.79l.72-4.194L.818 6.374a.75.75 0 0 1 .416-1.28l4.21-.611L7.327.668A.75.75 0 0 1 8 .25Z" transform="scale(0.85)"/>
      <text x="18" y="10" fill="#8b949e" font-family="'Segoe UI', system-ui, sans-serif" font-size="12">4</text>
    </g>
    
    <!-- Forks -->
    <g transform="translate(180, 0)">
      <path fill="#8b949e" d="M5 5.372v.878c0 .414.336.75.75.75h4.5a.75.75 0 0 0 .75-.75v-.878a2.25 2.25 0 1 1 1.5 0v.878a2.25 2.25 0 0 1-2.25 2.25h-1.5v2.128a2.251 2.251 0 1 1-1.5 0V8.5h-1.5A2.25 2.25 0 0 1 3.5 6.25v-.878a2.25 2.25 0 1 1 1.5 0ZM5 3.25a.75.75 0 1 0-1.5 0 .75.75 0 0 0 1.5 0Zm6.75.75a.75.75 0 1 0 0-1.5.75.75 0 0 0 0 1.5Zm-3 8.75a.75.75 0 1 0-1.5 0 .75.75 0 0 0 1.5 0Z" transform="scale(0.85)"/>
      <text x="18" y="10" fill="#8b949e" font-family="'Segoe UI', system-ui, sans-serif" font-size="12">0</text>
    </g>
  </g>

  </g>
  <g transform="translate(20, 360)">
    
  <defs>
    <linearGradient id="cardGrad4" x1="0%" y1="0%" x2="100%" y2="100%">
      <stop offset="0%" style="stop-color:#161b22;stop-opacity:1" />
      <stop offset="100%" style="stop-color:#0d1117;stop-opacity:1" />
    </linearGradient>
    <filter id="shadow4" x="-10%" y="-10%" width="120%" height="140%">
      <feDropShadow dx="0" dy="4" stdDeviation="8" flood-opacity="0.15"/>
    </filter>
  </defs>
  
  <rect width="400" height="150" fill="#0d1117" rx="12" ry="12"/>
  <rect x="4" y="4" width="392" height="142" fill="url(#cardGrad4)" rx="10" ry="10" stroke="#30363d" stroke-width="1" filter="url(#shadow4)"/>
  
  <!-- Repo Icon -->
  <g transform="translate(20, 20)">
    <path fill="#8b949e" d="M2 2.5A2.5 2.5 0 0 1 4.5 0h8.75a.75.75 0 0 1 .75.75v12.5a.75.75 0 0 1-.75.75h-2.5a.75.75 0 0 1 0-1.5h1.75v-2h-8a1 1 0 0 0-.714 1.7.75.75 0 1 1-1.072 1.05A2.495 2.495 0 0 1 2 11.5Zm10.5-1h-8a1 1 0 0 0-1 1v6.708A2.486 2.486 0 0 1 4.5 9h8ZM5 12.25a.25.25 0 0 1 .25-.25h3.5a.25.25 0 0 1 .25.25v3.25a.25.25 0 0 1-.4.2l-1.45-1.087a.249.249 0 0 0-.3 0L5.4 15.7a.25.25 0 0 1-.4-.2Z" transform="scale(1.2)"/>
  </g>
  
  <!-- Repo Name -->
  <text x="50" y="35" fill="#58a6ff" font-family="'Segoe UI', system-ui, sans-serif" font-size="16" font-weight="600">MOB-APP</text>
  
  <!-- Description -->
  <text x="20" y="60" fill="#8b949e" font-family="'Segoe UI', system-ui, sans-serif" font-size="12">A mobile-first, offline-capable Point of Sale app </text>
  <text x="20" y="76" fill="#8b949e" font-family="'Segoe UI', system-ui, sans-serif" font-size="12">for small vendors, built with React Native (Expo)....</text>
  
  <!-- Footer Stats -->
  <g transform="translate(20, 120)">
    <!-- Language -->
    <circle cx="6" cy="6" r="6" fill="#3178c6"/>
    <text x="18" y="10" fill="#8b949e" font-family="'Segoe UI', system-ui, sans-serif" font-size="12">TypeScript</text>
    
    <!-- Stars -->
    <g transform="translate(120, 0)">
      <path fill="#8b949e" d="M8 .25a.75.75 0 0 1 .673.418l1.882 3.815 4.21.612a.75.75 0 0 1 .416 1.279l-3.046 2.97.719 4.192a.751.751 0 0 1-1.088.791L8 12.347l-3.766 1.98a.75.75 0 0 1-1.088-.79l.72-4.194L.818 6.374a.75.75 0 0 1 .416-1.28l4.21-.611L7.327.668A.75.75 0 0 1 8 .25Z" transform="scale(0.85)"/>
      <text x="18" y="10" fill="#8b949e" font-family="'Segoe UI', system-ui, sans-serif" font-size="12">5</text>
    </g>
    
    <!-- Forks -->
    <g transform="translate(180, 0)">
      <path fill="#8b949e" d="M5 5.372v.878c0 .414.336.75.75.75h4.5a.75.75 0 0 0 .75-.75v-.878a2.25 2.25 0 1 1 1.5 0v.878a2.25 2.25 0 0 1-2.25 2.25h-1.5v2.128a2.251 2.251 0 1 1-1.5 0V8.5h-1.5A2.25 2.25 0 0 1 3.5 6.25v-.878a2.25 2.25 0 1 1 1.5 0ZM5 3.25a.75.75 0 1 0-1.5 0 .75.75 0 0 0 1.5 0Zm6.75.75a.75.75 0 1 0 0-1.5.75.75 0 0 0 0 1.5Zm-3 8.75a.75.75 0 1 0-1.5 0 .75.75 0 0 0 1.5 0Z" transform="scale(0.85)"/>
      <text x="18" y="10" fill="#8b949e" font-family="'Segoe UI', system-ui, sans-serif" font-size="12">0</text>
    </g>
  </g>

  </g>
  <g transform="translate(440, 360)">
    
  <defs>
    <linearGradient id="cardGrad5" x1="0%" y1="0%" x2="100%" y2="100%">
      <stop offset="0%" style="stop-color:#161b22;stop-opacity:1" />
      <stop offset="100%" style="stop-color:#0d1117;stop-opacity:1" />
    </linearGradient>
    <filter id="shadow5" x="-10%" y="-10%" width="120%" height="140%">
      <feDropShadow dx="0" dy="4" stdDeviation="8" flood-opacity="0.15"/>
    </filter>
  </defs>
  
  <rect width="400" height="150" fill="#0d1117" rx="12" ry="12"/>
  <rect x="4" y="4" width="392" height="142" fill="url(#cardGrad5)" rx="10" ry="10" stroke="#30363d" stroke-width="1" filter="url(#shadow5)"/>
  
  <!-- Repo Icon -->
  <g transform="translate(20, 20)">
    <path fill="#8b949e" d="M2 2.5A2.5 2.5 0 0 1 4.5 0h8.75a.75.75 0 0 1 .75.75v12.5a.75.75 0 0 1-.75.75h-2.5a.75.75 0 0 1 0-1.5h1.75v-2h-8a1 1 0 0 0-.714 1.7.75.75 0 1 1-1.072 1.05A2.495 2.495 0 0 1 2 11.5Zm10.5-1h-8a1 1 0 0 0-1 1v6.708A2.486 2.486 0 0 1 4.5 9h8ZM5 12.25a.25.25 0 0 1 .25-.25h3.5a.25.25 0 0 1 .25.25v3.25a.25.25 0 0 1-.4.2l-1.45-1.087a.249.249 0 0 0-.3 0L5.4 15.7a.25.25 0 0 1-.4-.2Z" transform="scale(1.2)"/>
  </g>
  
  <!-- Repo Name -->
  <text x="50" y="35" fill="#58a6ff" font-family="'Segoe UI', system-ui, sans-serif" font-size="16" font-weight="600">Medix-manager</text>
  
  <!-- Description -->
  <text x="20" y="60" fill="#8b949e" font-family="'Segoe UI', system-ui, sans-serif" font-size="12">A comprehensive hospital management system built w</text>
  <text x="20" y="76" fill="#8b949e" font-family="'Segoe UI', system-ui, sans-serif" font-size="12">ith Next.js 16, TypeScript, Prisma, SQLite, and Ne...</text>
  
  <!-- Footer Stats -->
  <g transform="translate(20, 120)">
    <!-- Language -->
    <circle cx="6" cy="6" r="6" fill="#3178c6"/>
    <text x="18" y="10" fill="#8b949e" font-family="'Segoe UI', system-ui, sans-serif" font-size="12">TypeScript</text>
    
    <!-- Stars -->
    <g transform="translate(120, 0)">
      <path fill="#8b949e" d="M8 .25a.75.75 0 0 1 .673.418l1.882 3.815 4.21.612a.75.75 0 0 1 .416 1.279l-3.046 2.97.719 4.192a.751.751 0 0 1-1.088.791L8 12.347l-3.766 1.98a.75.75 0 0 1-1.088-.79l.72-4.194L.818 6.374a.75.75 0 0 1 .416-1.28l4.21-.611L7.327.668A.75.75 0 0 1 8 .25Z" transform="scale(0.85)"/>
      <text x="18" y="10" fill="#8b949e" font-family="'Segoe UI', system-ui, sans-serif" font-size="12">0</text>
    </g>
    
    <!-- Forks -->
    <g transform="translate(180, 0)">
      <path fill="#8b949e" d="M5 5.372v.878c0 .414.336.75.75.75h4.5a.75.75 0 0 0 .75-.75v-.878a2.25 2.25 0 1 1 1.5 0v.878a2.25 2.25 0 0 1-2.25 2.25h-1.5v2.128a2.251 2.251 0 1 1-1.5 0V8.5h-1.5A2.25 2.25 0 0 1 3.5 6.25v-.878a2.25 2.25 0 1 1 1.5 0ZM5 3.25a.75.75 0 1 0-1.5 0 .75.75 0 0 0 1.5 0Zm6.75.75a.75.75 0 1 0 0-1.5.75.75 0 0 0 0 1.5Zm-3 8.75a.75.75 0 1 0-1.5 0 .75.75 0 0 0 1.5 0Z" transform="scale(0.85)"/>
      <text x="18" y="10" fill="#8b949e" font-family="'Segoe UI', system-ui, sans-serif" font-size="12">0</text>
    </g>
  </g>

  </g>
</svg>