<svg xmlns="http://www.w3.org/2000/svg" viewBox="0 0 530 290" width="530" height="290">
  <defs>
    <linearGradient id="trophyGrad0" x1="0%" y1="0%" x2="0%" y2="100%">
      <stop offset="0%" style="stop-color:#ffd700;stop-opacity:1" />
      <stop offset="100%" style="stop-color:#ff8c00;stop-opacity:1" />
    </linearGradient>
    <linearGradient id="trophyGrad1" x1="0%" y1="0%" x2="0%" y2="100%">
      <stop offset="0%" style="stop-color:#4CAF50;stop-opacity:1" />
      <stop offset="100%" style="stop-color:#2E7D32;stop-opacity:1" />
    </linearGradient>
    <linearGradient id="trophyGrad2" x1="0%" y1="0%" x2="0%" y2="100%">
      <stop offset="0%" style="stop-color:#9C27B0;stop-opacity:1" />
      <stop offset="100%" style="stop-color:#6A1B9A;stop-opacity:1" />
    </linearGradient>
    <linearGradient id="trophyGrad3" x1="0%" y1="0%" x2="0%" y2="100%">
      <stop offset="0%" style="stop-color:#FF5722;stop-opacity:1" />
      <stop offset="100%" style="stop-color:#E64A19;stop-opacity:1" />
    </linearGradient>
    <linearGradient id="trophyGrad4" x1="0%" y1="0%" x2="0%" y2="100%">
      <stop offset="0%" style="stop-color:#2196F3;stop-opacity:1" />
      <stop offset="100%" style="stop-color:#1565C0;stop-opacity:1" />
    </linearGradient>
    <linearGradient id="trophyGrad5" x1="0%" y1="0%" x2="0%" y2="100%">
      <stop offset="0%" style="stop-color:#00BCD4;stop-opacity:1" />
      <stop offset="100%" style="stop-color:#0097A7;stop-opacity:1" />
    </linearGradient>
    <linearGradient id="trophyGrad6" x1="0%" y1="0%" x2="0%" y2="100%">
      <stop offset="0%" style="stop-color:#E91E63;stop-opacity:1" />
      <stop offset="100%" style="stop-color:#C2185B;stop-opacity:1" />
    </linearGradient>
    <linearGradient id="trophyGrad7" x1="0%" y1="0%" x2="0%" y2="100%">
      <stop offset="0%" style="stop-color:#FF9800;stop-opacity:1" />
      <stop offset="100%" style="stop-color:#F57C00;stop-opacity:1" />
    </linearGradient>
  </defs>
  <rect width="530" height="290" fill="#ffffff" rx="12" ry="12"/>
  <g transform="translate(10, 10)">
    <rect width="120" height="130" fill="#ffffff" stroke="#d0d7de" stroke-width="1" rx="8" ry="8"/>
    
    <!-- Rank Badge -->
    <rect x="85" y="5" width="30" height="20" fill="#3498db" rx="4" ry="4"/>
    <text x="100" y="19" text-anchor="middle" fill="white" font-family="'Segoe UI', system-ui, sans-serif" font-size="11" font-weight="bold">B</text>
    
    <!-- Trophy Icon -->
    <text x="60.0" y="50" text-anchor="middle" font-size="28">⭐</text>
    
    <!-- Trophy Name -->
    <text x="60.0" y="80" text-anchor="middle" fill="#1f2328" font-family="'Segoe UI', system-ui, sans-serif" font-size="12" font-weight="600">Stars</text>
    
    <!-- Value -->
    <text x="60.0" y="100" text-anchor="middle" fill="#656d76" font-family="'Segoe UI', system-ui, sans-serif" font-size="11">29</text>
    
    <!-- Progress bar -->
    <rect x="10" y="110" width="100" height="6" fill="#d0d7de" rx="3" ry="3"/>
    <rect x="10" y="110" width="10" height="6" fill="url(#trophyGrad0)" rx="3" ry="3">
      <animate attributeName="width" from="0" to="10" dur="1s" fill="freeze"/>
    </rect>
  </g>
  <g transform="translate(140, 10)">
    <rect width="120" height="130" fill="#ffffff" stroke="#d0d7de" stroke-width="1" rx="8" ry="8"/>
    
    <!-- Rank Badge -->
    <rect x="85" y="5" width="30" height="20" fill="#6e6e6e" rx="4" ry="4"/>
    <text x="100" y="19" text-anchor="middle" fill="white" font-family="'Segoe UI', system-ui, sans-serif" font-size="11" font-weight="bold">C</text>
    
    <!-- Trophy Icon -->
    <text x="60.0" y="50" text-anchor="middle" font-size="28">📝</text>
    
    <!-- Trophy Name -->
    <text x="60.0" y="80" text-anchor="middle" fill="#1f2328" font-family="'Segoe UI', system-ui, sans-serif" font-size="12" font-weight="600">Commits</text>
    
    <!-- Value -->
    <text x="60.0" y="100" text-anchor="middle" fill="#656d76" font-family="'Segoe UI', system-ui, sans-serif" font-size="11">0</text>
    
    <!-- Progress bar -->
    <rect x="10" y="110" width="100" height="6" fill="#d0d7de" rx="3" ry="3"/>
    <rect x="10" y="110" width="10" height="6" fill="url(#trophyGrad1)" rx="3" ry="3">
      <animate attributeName="width" from="0" to="10" dur="1s" fill="freeze"/>
    </rect>
  </g>
  <g transform="translate(270, 10)">
    <rect width="120" height="130" fill="#ffffff" stroke="#d0d7de" stroke-width="1" rx="8" ry="8"/>
    
    <!-- Rank Badge -->
    <rect x="85" y="5" width="30" height="20" fill="#00c853" rx="4" ry="4"/>
    <text x="100" y="19" text-anchor="middle" fill="white" font-family="'Segoe UI', system-ui, sans-serif" font-size="11" font-weight="bold">A</text>
    
    <!-- Trophy Icon -->
    <text x="60.0" y="50" text-anchor="middle" font-size="28">🔀</text>
    
    <!-- Trophy Name -->
    <text x="60.0" y="80" text-anchor="middle" fill="#1f2328" font-family="'Segoe UI', system-ui, sans-serif" font-size="12" font-weight="600">PRs</text>
    
    <!-- Value -->
    <text x="60.0" y="100" text-anchor="middle" fill="#656d76" font-family="'Segoe UI', system-ui, sans-serif" font-size="11">44</text>
    
    <!-- Progress bar -->
    <rect x="10" y="110" width="100" height="6" fill="#d0d7de" rx="3" ry="3"/>
    <rect x="10" y="110" width="22.0" height="6" fill="url(#trophyGrad2)" rx="3" ry="3">
      <animate attributeName="width" from="0" to="22.0" dur="1s" fill="freeze"/>
    </rect>
  </g>
  <g transform="translate(400, 10)">
    <rect width="120" height="130" fill="#ffffff" stroke="#d0d7de" stroke-width="1" rx="8" ry="8"/>
    
    <!-- Rank Badge -->
    <rect x="85" y="5" width="30" height="20" fill="#3498db" rx="4" ry="4"/>
    <text x="100" y="19" text-anchor="middle" fill="white" font-family="'Segoe UI', system-ui, sans-serif" font-size="11" font-weight="bold">B</text>
    
    <!-- Trophy Icon -->
    <text x="60.0" y="50" text-anchor="middle" font-size="28">❗</text>
    
    <!-- Trophy Name -->
    <text x="60.0" y="80" text-anchor="middle" fill="#1f2328" font-family="'Segoe UI', system-ui, sans-serif" font-size="12" font-weight="600">Issues</text>
    
    <!-- Value -->
    <text x="60.0" y="100" text-anchor="middle" fill="#656d76" font-family="'Segoe UI', system-ui, sans-serif" font-size="11">16</text>
    
    <!-- Progress bar -->
    <rect x="10" y="110" width="100" height="6" fill="#d0d7de" rx="3" ry="3"/>
    <rect x="10" y="110" width="10" height="6" fill="url(#trophyGrad3)" rx="3" ry="3">
      <animate attributeName="width" from="0" to="10" dur="1s" fill="freeze"/>
    </rect>
  </g>
  <g transform="translate(10, 150)">
    <rect width="120" height="130" fill="#ffffff" stroke="#d0d7de" stroke-width="1" rx="8" ry="8"/>
    
    <!-- Rank Badge -->
    <rect x="85" y="5" width="30" height="20" fill="#00c853" rx="4" ry="4"/>
    <text x="100" y="19" text-anchor="middle" fill="white" font-family="'Segoe UI', system-ui, sans-serif" font-size="11" font-weight="bold">A</text>
    
    <!-- Trophy Icon -->
    <text x="60.0" y="50" text-anchor="middle" font-size="28">📁</text>
    
    <!-- Trophy Name -->
    <text x="60.0" y="80" text-anchor="middle" fill="#1f2328" font-family="'Segoe UI', system-ui, sans-serif" font-size="12" font-weight="600">Repos</text>
    
    <!-- Value -->
    <text x="60.0" y="100" text-anchor="middle" fill="#656d76" font-family="'Segoe UI', system-ui, sans-serif" font-size="11">32</text>
    
    <!-- Progress bar -->
    <rect x="10" y="110" width="100" height="6" fill="#d0d7de" rx="3" ry="3"/>
    <rect x="10" y="110" width="16.0" height="6" fill="url(#trophyGrad4)" rx="3" ry="3">
      <animate attributeName="width" from="0" to="16.0" dur="1s" fill="freeze"/>
    </rect>
  </g>
  <g transform="translate(140, 150)">
    <rect width="120" height="130" fill="#ffffff" stroke="#d0d7de" stroke-width="1" rx="8" ry="8"/>
    
    <!-- Rank Badge -->
    <rect x="85" y="5" width="30" height="20" fill="#3498db" rx="4" ry="4"/>
    <text x="100" y="19" text-anchor="middle" fill="white" font-family="'Segoe UI', system-ui, sans-serif" font-size="11" font-weight="bold">B</text>
    
    <!-- Trophy Icon -->
    <text x="60.0" y="50" text-anchor="middle" font-size="28">👥</text>
    
    <!-- Trophy Name -->
    <text x="60.0" y="80" text-anchor="middle" fill="#1f2328" font-family="'Segoe UI', system-ui, sans-serif" font-size="12" font-weight="600">Followers</text>
    
    <!-- Value -->
    <text x="60.0" y="100" text-anchor="middle" fill="#656d76" font-family="'Segoe UI', system-ui, sans-serif" font-size="11">10</text>
    
    <!-- Progress bar -->
    <rect x="10" y="110" width="100" height="6" fill="#d0d7de" rx="3" ry="3"/>
    <rect x="10" y="110" width="10" height="6" fill="url(#trophyGrad5)" rx="3" ry="3">
      <animate attributeName="width" from="0" to="10" dur="1s" fill="freeze"/>
    </rect>
  </g>
  <g transform="translate(270, 150)">
    <rect width="120" height="130" fill="#ffffff" stroke="#d0d7de" stroke-width="1" rx="8" ry="8"/>
    
    <!-- Rank Badge -->
    <rect x="85" y="5" width="30" height="20" fill="#3498db" rx="4" ry="4"/>
    <text x="100" y="19" text-anchor="middle" fill="white" font-family="'Segoe UI', system-ui, sans-serif" font-size="11" font-weight="bold">B</text>
    
    <!-- Trophy Icon -->
    <text x="60.0" y="50" text-anchor="middle" font-size="28">🏅</text>
    
    <!-- Trophy Name -->
    <text x="60.0" y="80" text-anchor="middle" fill="#1f2328" font-family="'Segoe UI', system-ui, sans-serif" font-size="12" font-weight="600">Experience</text>
    
    <!-- Value -->
    <text x="60.0" y="100" text-anchor="middle" fill="#656d76" font-family="'Segoe UI', system-ui, sans-serif" font-size="11">1</text>
    
    <!-- Progress bar -->
    <rect x="10" y="110" width="100" height="6" fill="#d0d7de" rx="3" ry="3"/>
    <rect x="10" y="110" width="10" height="6" fill="url(#trophyGrad6)" rx="3" ry="3">
      <animate attributeName="width" from="0" to="10" dur="1s" fill="freeze"/>
    </rect>
  </g>
  <g transform="translate(400, 150)">
    <rect width="120" height="130" fill="#ffffff" stroke="#d0d7de" stroke-width="1" rx="8" ry="8"/>
    
    <!-- Rank Badge -->
    <rect x="85" y="5" width="30" height="20" fill="#6e6e6e" rx="4" ry="4"/>
    <text x="100" y="19" text-anchor="middle" fill="white" font-family="'Segoe UI', system-ui, sans-serif" font-size="11" font-weight="bold">C</text>
    
    <!-- Trophy Icon -->
    <text x="60.0" y="50" text-anchor="middle" font-size="28">🔥</text>
    
    <!-- Trophy Name -->
    <text x="60.0" y="80" text-anchor="middle" fill="#1f2328" font-family="'Segoe UI', system-ui, sans-serif" font-size="12" font-weight="600">Contrib</text>
    
    <!-- Value -->
    <text x="60.0" y="100" text-anchor="middle" fill="#656d76" font-family="'Segoe UI', system-ui, sans-serif" font-size="11">57</text>
    
    <!-- Progress bar -->
    <rect x="10" y="110" width="100" height="6" fill="#d0d7de" rx="3" ry="3"/>
    <rect x="10" y="110" width="10" height="6" fill="url(#trophyGrad7)" rx="3" ry="3">
      <animate attributeName="width" from="0" to="10" dur="1s" fill="freeze"/>
    </rect>
  </g>
</svg>