<svg xmlns="http://www.w3.org/2000/svg" width="900" height="120" viewBox="0 0 900 120">
  <defs>
    <linearGradient id="projCardGrad_mob_dark" x1="0%" y1="0%" x2="100%" y2="100%">
      <stop offset="0%" style="stop-color:#3498db;stop-opacity:0.15"/>
      <stop offset="100%" style="stop-color:#1abc9c;stop-opacity:0.15"/>
    </linearGradient>
  </defs>
  
  <rect width="900" height="120" rx="12" fill="#161b22" stroke="#30363d" stroke-width="2"/>
  <rect x="2" y="2" width="896" height="116" rx="10" fill="url(#projCardGrad_mob_dark)" opacity="0.8"/>
  <rect x="0" y="0" width="4" height="120" rx="2" fill="#3498db"/>
  
  <text x="30" y="55" font-size="32">📱</text>
  <text x="75" y="35" font-family="Segoe UI, Arial, sans-serif" font-size="20" font-weight="bold" fill="#c9d1d9">MOB-APP</text>
  <text x="75" y="58" font-family="Segoe UI, Arial, sans-serif" font-size="12" fill="#8b949e">Cross-platform mobile application with smooth animations</text>
  
  <g transform="translate(75, 75)">
    <rect width="85" height="20" rx="10" fill="#61DAFB" opacity="0.2"/>
    <text x="42" y="14" font-family="Segoe UI, Arial, sans-serif" font-size="10" fill="#61DAFB" text-anchor="middle">React Native</text>
    <rect x="92" width="45" height="20" rx="10" fill="#000020" opacity="0.3"/>
    <text x="114" y="14" font-family="Segoe UI, Arial, sans-serif" font-size="10" fill="#ffffff" text-anchor="middle">Expo</text>
  </g>
  
  <g transform="translate(700, 30)">
    <circle cx="10" cy="8" r="6" fill="#F7DF1E"/>
    <text x="22" y="12" font-family="Segoe UI, Arial, sans-serif" font-size="11" fill="#8b949e">JavaScript</text>
    <text x="0" y="40" font-family="Segoe UI, Arial, sans-serif" font-size="13" fill="#feca57">⭐</text>
    <text x="20" y="40" font-family="Segoe UI, Arial, sans-serif" font-size="11" fill="#8b949e">0</text>
    <text x="50" y="40" font-family="Segoe UI, Arial, sans-serif" font-size="13" fill="#8b949e">🍴</text>
    <text x="70" y="40" font-family="Segoe UI, Arial, sans-serif" font-size="11" fill="#8b949e">0</text>
  </g>
  
  <g transform="translate(700, 75)">
    <rect width="50" height="18" rx="9" fill="#238636" opacity="0.3"/>
    <text x="25" y="13" font-family="Segoe UI, Arial, sans-serif" font-size="9" fill="#3fb950" text-anchor="middle">mobile</text>
    <rect x="55" width="65" height="18" rx="9" fill="#238636" opacity="0.3"/>
    <text x="87" y="13" font-family="Segoe UI, Arial, sans-serif" font-size="9" fill="#3fb950" text-anchor="middle">cross-platform</text>
  </g>
  
  <text x="870" y="65" font-family="Segoe UI, Arial, sans-serif" font-size="16" fill="#58a6ff">→</text>
</svg>
