<svg xmlns="http://www.w3.org/2000/svg" width="900" height="120" viewBox="0 0 900 120">
  <defs>
    <linearGradient id="projCardGrad_mob_light" x1="0%" y1="0%" x2="100%" y2="100%">
      <stop offset="0%" style="stop-color:#2980b9;stop-opacity:0.1"/>
      <stop offset="100%" style="stop-color:#16a085;stop-opacity:0.1"/>
    </linearGradient>
  </defs>
  
  <rect width="900" height="120" rx="12" fill="#ffffff" stroke="#d0d7de" stroke-width="2"/>
  <rect x="2" y="2" width="896" height="116" rx="10" fill="url(#projCardGrad_mob_light)" opacity="0.8"/>
  <rect x="0" y="0" width="4" height="120" rx="2" fill="#2980b9"/>
  
  <text x="30" y="55" font-size="32">📱</text>
  <text x="75" y="35" font-family="Segoe UI, Arial, sans-serif" font-size="20" font-weight="bold" fill="#24292f">MOB-APP</text>
  <text x="75" y="58" font-family="Segoe UI, Arial, sans-serif" font-size="12" fill="#57606a">Cross-platform mobile application with smooth animations</text>
  
  <g transform="translate(75, 75)">
    <rect width="85" height="20" rx="10" fill="#61DAFB" opacity="0.3"/>
    <text x="42" y="14" font-family="Segoe UI, Arial, sans-serif" font-size="10" fill="#0969da" text-anchor="middle">React Native</text>
    <rect x="92" width="45" height="20" rx="10" fill="#24292f" opacity="0.1"/>
    <text x="114" y="14" font-family="Segoe UI, Arial, sans-serif" font-size="10" fill="#24292f" text-anchor="middle">Expo</text>
  </g>
  
  <g transform="translate(700, 30)">
    <circle cx="10" cy="8" r="6" fill="#F7DF1E"/>
    <text x="22" y="12" font-family="Segoe UI, Arial, sans-serif" font-size="11" fill="#57606a">JavaScript</text>
    <text x="0" y="40" font-family="Segoe UI, Arial, sans-serif" font-size="13" fill="#f39c12">⭐</text>
    <text x="20" y="40" font-family="Segoe UI, Arial, sans-serif" font-size="11" fill="#57606a">0</text>
    <text x="50" y="40" font-family="Segoe UI, Arial, sans-serif" font-size="13" fill="#57606a">🍴</text>
    <text x="70" y="40" font-family="Segoe UI, Arial, sans-serif" font-size="11" fill="#57606a">0</text>
  </g>
  
  <g transform="translate(700, 75)">
    <rect width="50" height="18" rx="9" fill="#dafbe1"/>
    <text x="25" y="13" font-family="Segoe UI, Arial, sans-serif" font-size="9" fill="#1a7f37" text-anchor="middle">mobile</text>
    <rect x="55" width="65" height="18" rx="9" fill="#dafbe1"/>
    <text x="87" y="13" font-family="Segoe UI, Arial, sans-serif" font-size="9" fill="#1a7f37" text-anchor="middle">cross-platform</text>
  </g>
  
  <text x="870" y="65" font-family="Segoe UI, Arial, sans-serif" font-size="16" fill="#0969da">→</text>
</svg>
