<svg xmlns="http://www.w3.org/2000/svg" width="800" height="220" viewBox="0 0 800 220">
  <rect width="800" height="220" fill="#ffffff" rx="10"/>
  <text x="400" y="30" font-family="Segoe UI, Arial, sans-serif" font-size="16" font-weight="bold" fill="#24292f" text-anchor="middle">📈 Weekly Coding Activity</text>
  
    <rect x="80" y="60.0" width="60" height="120.0" rx="5" fill="#ff6b6b" opacity="0.8"/>
    <text x="110" y="200" font-family="Segoe UI, Arial, sans-serif" font-size="12" fill="#57606a" text-anchor="middle">Sun</text>
    <text x="110" y="50.0" font-family="Segoe UI, Arial, sans-serif" font-size="11" fill="#24292f" text-anchor="middle">6.0h</text>
    <rect x="180" y="100.0" width="60" height="80.0" rx="5" fill="#feca57" opacity="0.8"/>
    <text x="210" y="200" font-family="Segoe UI, Arial, sans-serif" font-size="12" fill="#57606a" text-anchor="middle">Mon</text>
    <text x="210" y="90.0" font-family="Segoe UI, Arial, sans-serif" font-size="11" fill="#24292f" text-anchor="middle">4.0h</text>
    <rect x="280" y="60.0" width="60" height="120.0" rx="5" fill="#48dbfb" opacity="0.8"/>
    <text x="310" y="200" font-family="Segoe UI, Arial, sans-serif" font-size="12" fill="#57606a" text-anchor="middle">Tue</text>
    <text x="310" y="50.0" font-family="Segoe UI, Arial, sans-serif" font-size="11" fill="#24292f" text-anchor="middle">6.0h</text>
    <rect x="380" y="100.0" width="60" height="80.0" rx="5" fill="#ff9ff3" opacity="0.8"/>
    <text x="410" y="200" font-family="Segoe UI, Arial, sans-serif" font-size="12" fill="#57606a" text-anchor="middle">Wed</text>
    <text x="410" y="90.0" font-family="Segoe UI, Arial, sans-serif" font-size="11" fill="#24292f" text-anchor="middle">4.0h</text>
    <rect x="480" y="60.0" width="60" height="120.0" rx="5" fill="#54a0ff" opacity="0.8"/>
    <text x="510" y="200" font-family="Segoe UI, Arial, sans-serif" font-size="12" fill="#57606a" text-anchor="middle">Thu</text>
    <text x="510" y="50.0" font-family="Segoe UI, Arial, sans-serif" font-size="11" fill="#24292f" text-anchor="middle">6.0h</text>
    <rect x="580" y="80.0" width="60" height="100.0" rx="5" fill="#5f27cd" opacity="0.8"/>
    <text x="610" y="200" font-family="Segoe UI, Arial, sans-serif" font-size="12" fill="#57606a" text-anchor="middle">Fri</text>
    <text x="610" y="70.0" font-family="Segoe UI, Arial, sans-serif" font-size="11" fill="#24292f" text-anchor="middle">5.0h</text>
    <rect x="680" y="60.0" width="60" height="120.0" rx="5" fill="#00d2d3" opacity="0.8"/>
    <text x="710" y="200" font-family="Segoe UI, Arial, sans-serif" font-size="12" fill="#57606a" text-anchor="middle">Sat</text>
    <text x="710" y="50.0" font-family="Segoe UI, Arial, sans-serif" font-size="11" fill="#24292f" text-anchor="middle">6.0h</text>
</svg>